<?xml version="1.0" encoding="UTF-8"?>
<svg version="1.1" xmlns="http://www.w3.org/2000/svg" width="130" height="130">
<path d="M0 0 C1.32 0.33 2.64 0.66 4 1 C4 3.31 4 5.62 4 8 C5.32 8 6.64 8 8 8 C8 9.32 8 10.64 8 12 C5.08528636 12.84129235 2.5291713 13.10918243 -0.5 13.0625 C-1.2528125 13.05347656 -2.005625 13.04445313 -2.78125 13.03515625 C-3.5134375 13.02355469 -4.245625 13.01195312 -5 13 C-6.32 13 -7.64 13 -9 13 C-12.66666667 13 -16.33333333 13 -20 13 C-20 12.34 -20 11.68 -20 11 C-20.99 11.66 -21.98 12.32 -23 13 C-25.835628 13.22234558 -28.54095085 13.32446811 -31.375 13.3125 C-32.50808594 13.33666992 -32.50808594 13.33666992 -33.6640625 13.36132812 C-38.40969936 13.36547641 -40.9770708 12.69379888 -45 10 C-46.32 10 -47.64 10 -49 10 C-49 10.66 -49 11.32 -49 12 C-50.65 12 -52.3 12 -54 12 C-54 8.7 -54 5.4 -54 2 C-49.4477129 0.94132858 -47.25315881 1.27574643 -43 3 C-42.01 2.34 -41.02 1.68 -40 1 C-36.4375 1.375 -36.4375 1.375 -33 2 C-30.9254644 2.1490712 -30.9254644 2.1490712 -29 1 C-26.28239892 0.92818179 -23.59140612 0.90700494 -20.875 0.9375 C-20.12089844 0.94201172 -19.36679688 0.94652344 -18.58984375 0.95117188 C-16.72652873 0.96296501 -14.86325445 0.98090058 -13 1 C-12.34 2.65 -11.68 4.3 -11 6 C-10.34 4.35 -9.68 2.7 -9 1 C-5 1 -5 1 -3.25 2.5 C-2.8375 2.995 -2.425 3.49 -2 4 C-1.34 2.68 -0.68 1.36 0 0 Z M-39 5 C-38.67 5.99 -38.34 6.98 -38 8 C-37.34 8 -36.68 8 -36 8 C-36 7.01 -36 6.02 -36 5 C-36.99 5 -37.98 5 -39 5 Z M-22 5 C-21.34 6.32 -20.68 7.64 -20 9 C-20 7.68 -20 6.36 -20 5 C-20.66 5 -21.32 5 -22 5 Z M-14 6 C-14 6.66 -14 7.32 -14 8 C-13.34 7.67 -12.68 7.34 -12 7 C-12.66 6.67 -13.32 6.34 -14 6 Z " fill="#4E7BB4" transform="translate(102,47)"/>
<path d="M0 0 C2.5150608 2.12812837 3.73916282 3.66892367 4.37890625 6.93359375 C4.59302872 10.58749006 4.17777275 12.66578723 2.4375 15.9375 C-0.75638769 18.64002035 -2.84846877 18.92716612 -7 19 C-9.93722751 18.28201105 -11.41182268 17.72821954 -13.3125 15.375 C-14.3237222 11.88168696 -14.58850959 8.57360042 -14 5 C-10.26838998 -1.04778176 -6.75465496 -1.65903806 0 0 Z " fill="#B72535" transform="translate(32,67)"/>
<path d="M0 0 C3.10034716 0.08789532 3.10034716 0.08789532 6.5 -0.625 C10 -1 10 -1 13 1 C13.33 0.67 13.66 0.34 14 0 C16.67058851 -0.14115161 19.32432238 -0.04247107 22 0 C22 0.66 22 1.32 22 2 C20.68 2.33 19.36 2.66 18 3 C19.65 3.66 21.3 4.32 23 5 C22.125 8.875 22.125 8.875 21 10 C18.40742685 10.31963231 15.8524844 10.56214461 13.25 10.75 C12.53328125 10.81832031 11.8165625 10.88664062 11.078125 10.95703125 C6.31371893 11.29859713 3.90138368 10.64639313 0 8 C-1.32 8 -2.64 8 -4 8 C-4 8.66 -4 9.32 -4 10 C-5.65 10 -7.3 10 -9 10 C-9 6.7 -9 3.4 -9 0 C-5.93652871 -1.53173564 -3.31441515 -0.52332871 0 0 Z M6 3 C6.33 3.99 6.66 4.98 7 6 C7.66 6 8.32 6 9 6 C9 5.01 9 4.02 9 3 C8.01 3 7.02 3 6 3 Z " fill="#B5C8E0" transform="translate(57,49)"/>
<path d="M0 0 C2.36201917 2.12581725 2.93326214 3.78548545 3.875 6.8125 C4.03733685 10.9520897 3.00630765 13.40248283 1 17 C-1.21858967 18.70091875 -2.69052639 18.95238868 -5.4375 19.375 C-8.88643698 18.87027751 -10.49893968 17.36211252 -13 15 C-14.60847182 11.78305636 -14.61309149 8.47862778 -14 5 C-9.50835184 -0.55545957 -6.94802877 -1.58463814 0 0 Z " fill="#BD2331" transform="translate(70,67)"/>
<path d="M0 0 C2.91368224 1.98378365 4.63558769 3.41448681 5.4453125 6.9375 C5.66575086 10.81721518 5.24497801 12.62858172 3.0625 15.9375 C0 19 0 19 -3.375 19.1875 C-7 19 -7 19 -10 17 C-10 16.34 -10 15.68 -10 15 C-10.66 15 -11.32 15 -12 15 C-13.34400949 7.79122183 -13.34400949 7.79122183 -11.75 4.125 C-8.2164972 -0.16568198 -5.37188074 -0.64833043 0 0 Z " fill="#D11920" transform="translate(106,67)"/>
<path d="M0 0 C1.7015625 0.4021875 1.7015625 0.4021875 3.4375 0.8125 C4.4275 0.8125 5.4175 0.8125 6.4375 0.8125 C6.7675 0.4825 7.0975 0.1525 7.4375 -0.1875 C10.875 0.0625 10.875 0.0625 14.4375 0.8125 C16.4375 3.8125 16.4375 3.8125 16.3125 6.875 C15.4375 9.8125 15.4375 9.8125 13.85546875 10.9765625 C10.48070633 12.14328166 7.43835464 12.11455028 3.875 12.125 C2.86663086 12.14916992 2.86663086 12.14916992 1.83789062 12.17382812 C-3.06471736 12.17869665 -3.06471736 12.17869665 -5.46875 10.41015625 C-6.85068777 8.39154001 -7.48971071 7.2873358 -7.5625 4.8125 C-5.42095413 0.79710149 -4.65753853 -0.24513361 0 0 Z M3.4375 2.8125 C3.1075 3.4725 2.7775 4.1325 2.4375 4.8125 C3.0975 4.8125 3.7575 4.8125 4.4375 4.8125 C4.1075 4.1525 3.7775 3.4925 3.4375 2.8125 Z M-2.5625 3.8125 C-2.2325 4.8025 -1.9025 5.7925 -1.5625 6.8125 C-0.5725 5.8225 0.4175 4.8325 1.4375 3.8125 C0.1175 3.8125 -1.2025 3.8125 -2.5625 3.8125 Z M8.4375 3.8125 C8.7675 4.8025 9.0975 5.7925 9.4375 6.8125 C10.0975 6.4825 10.7575 6.1525 11.4375 5.8125 C11.4375 5.1525 11.4375 4.4925 11.4375 3.8125 C10.4475 3.8125 9.4575 3.8125 8.4375 3.8125 Z " fill="#CAD7E8" transform="translate(27.5625,48.1875)"/>
<path d="M0 0 C4.66666667 0 9.33333333 0 14 0 C14.93714844 -0.03480469 15.87429687 -0.06960937 16.83984375 -0.10546875 C18.37318359 -0.14607422 18.37318359 -0.14607422 19.9375 -0.1875 C21.46697266 -0.23970703 21.46697266 -0.23970703 23.02734375 -0.29296875 C26.45926219 0.04526237 28.30342637 0.86955785 31 3 C31 3.99 31 4.98 31 6 C29.35 6.66 27.7 7.32 26 8 C26 7.34 26 6.68 26 6 C24.845 6.165 23.69 6.33 22.5 6.5 C18.2963242 7.03012608 14.23458418 7.07177261 10 7 C9.01 7 8.02 7 7 7 C5.33333333 7 3.66666667 7 2 7 C2 6.01 2 5.02 2 4 C1.34 4 0.68 4 0 4 C0 2.68 0 1.36 0 0 Z " fill="#507CB5" transform="translate(86,87)"/>
<path d="M0 0 C0.66 -0.66 1.32 -1.32 2 -2 C2.99 -1.34 3.98 -0.68 5 0 C5.1875 3.125 5.1875 3.125 5 6 C1.37 6 -2.26 6 -6 6 C-6 5.34 -6 4.68 -6 4 C-6.66 4 -7.32 4 -8 4 C-8 4.66 -8 5.32 -8 6 C-12.95 6 -17.9 6 -23 6 C-23 4.68 -23 3.36 -23 2 C-23.66 2 -24.32 2 -25 2 C-25 1.01 -25 0.02 -25 -1 C-20.33333333 -1 -15.66666667 -1 -11 -1 C-10.030625 -1.20625 -9.06125 -1.4125 -8.0625 -1.625 C-4.67109845 -2.04027366 -3.01474927 -1.50737464 0 0 Z M-11 1 C-10 4 -10 4 -10 4 Z M-1 2 C0 4 0 4 0 4 Z " fill="#4775B1" transform="translate(37,88)"/>
<path d="M0 0 C4.66666667 0 9.33333333 0 14 0 C15.87365234 -0.05220703 15.87365234 -0.05220703 17.78515625 -0.10546875 C19.21092967 -0.13321782 20.63671125 -0.1605499 22.0625 -0.1875 C22.78244141 -0.21263672 23.50238281 -0.23777344 24.24414062 -0.26367188 C29.55419143 -0.33762801 29.55419143 -0.33762801 31.99609375 1.51171875 C32.32738281 2.00285156 32.65867188 2.49398437 33 3 C32.34 3 31.68 3 31 3 C31.33 4.32 31.66 5.64 32 7 C31.01 6.67 30.02 6.34 29 6 C27.88625 6.165 26.7725 6.33 25.625 6.5 C22.21759854 6.96998641 20.28253388 6.69105976 17 6 C15.33178677 6.32550502 13.66500443 6.65846063 12 7 C10.66018514 6.6937566 9.32488113 6.36548445 8 6 C7.01 6.495 7.01 6.495 6 7 C6 6.34 6 5.68 6 5 C5.34 5 4.68 5 4 5 C3.67 5.66 3.34 6.32 3 7 C2.01 4.69 1.02 2.38 0 0 Z " fill="#4B78B3" transform="translate(48,87)"/>
<path d="M0 0 C5.28 0 10.56 0 16 0 C18.26548673 5.66371681 18.26548673 5.66371681 17 9 C16.67 9.66 16.34 10.32 16 11 C16.5775 10.67 17.155 10.34 17.75 10 C20 9 20 9 24 9 C23.67 9.66 23.34 10.32 23 11 C21.109375 11.4140625 21.109375 11.4140625 18.75 11.625 C17.53763672 11.73521484 17.53763672 11.73521484 16.30078125 11.84765625 C13.86004606 12.0092669 11.445326 12.07888148 9 12 C9 11.34 9 10.68 9 10 C8.01 10.66 7.02 11.32 6 12 C3.66800612 12.07905064 1.33167378 12.08798769 -1 12 C-1 11.67 -1 11.34 -1 11 C1.31 10.34 3.62 9.68 6 9 C5.67 7.68 5.34 6.36 5 5 C3.68 4.67 2.36 4.34 1 4 C1 3.67 1 3.34 1 3 C2.65 3 4.3 3 6 3 C6 2.34 6 1.68 6 1 C4.02 1 2.04 1 0 1 C0 0.67 0 0.34 0 0 Z M7 4 C7.66 5.32 8.32 6.64 9 8 C9 6.68 9 5.36 9 4 C8.34 4 7.68 4 7 4 Z M15 5 C15 5.66 15 6.32 15 7 C15.66 6.67 16.32 6.34 17 6 C16.34 5.67 15.68 5.34 15 5 Z " fill="#527EB6" transform="translate(73,48)"/>
<path d="M0 0 C3.3 0 6.6 0 10 0 C10 1.32 10 2.64 10 4 C10.99 2.68 11.98 1.36 13 0 C13.49181953 7.25433813 13.49181953 7.25433813 11.0625 10.9375 C8 14 8 14 4.625 14.1875 C1 14 1 14 -2 12 C-1.67 11.34 -1.34 10.68 -1 10 C0.485 10.99 0.485 10.99 2 12 C3.65549531 12.38499891 5.3222433 12.72793135 7 13 C7 12.34 7 11.68 7 11 C6.01 10.67 5.02 10.34 4 10 C4 8.02 4 6.04 4 4 C2.68 3.34 1.36 2.68 0 2 C0 1.34 0 0.68 0 0 Z " fill="#AD2A3E" transform="translate(98,72)"/>
<path d="M0 0 C0.99 0.33 1.98 0.66 3 1 C3 3.64 3 6.28 3 9 C0.69 8.67 -1.62 8.34 -4 8 C-4 8.66 -4 9.32 -4 10 C-5.65 10 -7.3 10 -9 10 C-9 6.7 -9 3.4 -9 0 C-5.90998791 -1.54500605 -3.32822635 -0.58389936 0 0 Z " fill="#BCCDE3" transform="translate(57,49)"/>
<path d="M0 0 C2 3 2 3 1.6875 6.125 C1 9 1 9 0 10 C-6.24521739 10.4626087 -6.24521739 10.4626087 -8.9375 8.8125 C-10.38718434 6.33950907 -10.42317323 4.82115488 -10 2 C-7.59684073 -2.24086929 -4.21511384 -1.07293807 0 0 Z M-6 3 C-5.67 3.99 -5.34 4.98 -5 6 C-4.34 5.67 -3.68 5.34 -3 5 C-3 4.34 -3 3.68 -3 3 C-3.99 3 -4.98 3 -6 3 Z " fill="#CBD8E9" transform="translate(42,49)"/>
<path d="M0 0 C4.75 0.875 4.75 0.875 7 2 C6.64950425 5.24208567 6.43778819 6.61527704 3.9375 8.8125 C3.298125 9.204375 2.65875 9.59625 2 10 C1.67 9.01 1.34 8.02 1 7 C-6.89133919 7.57741506 -11.80297813 12.4880071 -17 18 C-15.20330614 12.44658262 -12.47189149 8.4460376 -7.44921875 5.5078125 C-4.98920053 4.27606363 -2.51902455 3.10543602 0 2 C0 1.34 0 0.68 0 0 Z " fill="#B5C7E0" transform="translate(33,35)"/>
<path d="M0 0 C2.3125 1.25 2.3125 1.25 3.3125 2.25 C3.625 5.125 3.625 5.125 3.3125 8.25 C1.6875 10.25 1.6875 10.25 -0.6875 11.25 C-3.9375 10.4375 -3.9375 10.4375 -6.6875 9.25 C-7.17118522 2.84117083 -7.17118522 2.84117083 -5 0.1875 C-2.6875 -0.75 -2.6875 -0.75 0 0 Z " fill="#EC5B5B" transform="translate(66.6875,70.75)"/>
<path d="M0 0 C2.9375 1.3125 2.9375 1.3125 3.8125 3.4375 C3.85375 4.05625 3.895 4.675 3.9375 5.3125 C2.2875 5.9725 0.6375 6.6325 -1.0625 7.3125 C-1.0625 6.6525 -1.0625 5.9925 -1.0625 5.3125 C-2.3 5.4775 -3.5375 5.6425 -4.8125 5.8125 C-7.64070832 6.18959444 -10.17814062 6.3125 -13.0625 6.3125 C-12.7325 4.3325 -12.4025 2.3525 -12.0625 0.3125 C-11.0725 0.6425 -10.0825 0.9725 -9.0625 1.3125 C-0.82505708 -0.18521689 -0.82505708 -0.18521689 0 0 Z " fill="#90ABD0" transform="translate(113.0625,87.6875)"/>
<path d="M0 0 C1.32 0 2.64 0 4 0 C7 6.5 7 6.5 7 11 C6.01 11 5.02 11 4 11 C4 10.34 4 9.68 4 9 C2.8553125 9.495 2.8553125 9.495 1.6875 10 C-1 11 -1 11 -4 11 C-3.5247412 9.35303396 -3.04468109 7.70745272 -2.5625 6.0625 C-2.29566406 5.14597656 -2.02882813 4.22945312 -1.75390625 3.28515625 C-1 1 -1 1 0 0 Z " fill="#D7E1EE" transform="translate(93,48)"/>
<path d="M0 0 C2.64 0 5.28 0 8 0 C8 0.66 8 1.32 8 2 C6.68 2.33 5.36 2.66 4 3 C6.475 3.99 6.475 3.99 9 5 C8.125 8.875 8.125 8.875 7 10 C4.66702567 10.04092937 2.33294775 10.04241723 0 10 C0 9.01 0 8.02 0 7 C0.66 6.67 1.32 6.34 2 6 C1.34 5.67 0.68 5.34 0 5 C0 3.35 0 1.7 0 0 Z " fill="#DAE3EF" transform="translate(71,49)"/>
<path d="M0 0 C0.33 0 0.66 0 1 0 C1.04125 0.928125 1.0825 1.85625 1.125 2.8125 C1.68533017 6.22617805 1.68533017 6.22617805 4.75 7.8125 C7.5306351 8.82850129 10.07804245 9.57030036 13 10 C13.33 10.99 13.66 11.98 14 13 C6.7643956 14.47164835 6.7643956 14.47164835 3.0625 12.1875 C-0.7067605 8.18979947 -0.08547049 5.29917007 0 0 Z " fill="#A12F48" transform="translate(56,72)"/>
<path d="M0 0 C0.928125 0.20625 1.85625 0.4125 2.8125 0.625 C3.85699911 3.75849732 3.74673645 4.61468256 2.8125 7.625 C1.8225 7.625 0.8325 7.625 -0.1875 7.625 C-0.1875 6.965 -0.1875 6.305 -0.1875 5.625 C-0.8475 5.625 -1.5075 5.625 -2.1875 5.625 C-2.1875 6.285 -2.1875 6.945 -2.1875 7.625 C-3.1775 7.625 -4.1675 7.625 -5.1875 7.625 C-5.5175 5.645 -5.8475 3.665 -6.1875 1.625 C-3.1875 -0.375 -3.1875 -0.375 0 0 Z " fill="#F29393" transform="translate(28.1875,72.375)"/>
<path d="M0 0 C1.37494222 2.26461071 2.07991957 3.45654694 1.6875 6.125 C1 8 1 8 0 10 C0.86625 9.505 0.86625 9.505 1.75 9 C4 8 4 8 8 8 C7.67 8.66 7.34 9.32 7 10 C5.109375 10.4140625 5.109375 10.4140625 2.75 10.625 C1.53763672 10.73521484 1.53763672 10.73521484 0.30078125 10.84765625 C-2.13995394 11.0092669 -4.554674 11.07888148 -7 11 C-7 8.36 -7 5.72 -7 3 C-7.66 2.67 -8.32 2.34 -9 2 C-8.01 2 -7.02 2 -6 2 C-6 4.64 -6 7.28 -6 10 C-5.01 10 -4.02 10 -3 10 C-3 7.36 -3 4.72 -3 2 C-2.01 2 -1.02 2 0 2 C0 1.34 0 0.68 0 0 Z M-1 4 C-1 4.66 -1 5.32 -1 6 C-0.34 5.67 0.32 5.34 1 5 C0.34 4.67 -0.32 4.34 -1 4 Z " fill="#5781B8" transform="translate(89,49)"/>
<path d="M0 0 C4.44495972 -0.1234711 7.80753477 0.60251159 12 2 C12 3.32 12 4.64 12 6 C8.37 6 4.74 6 1 6 C0.67 4.02 0.34 2.04 0 0 Z " fill="#8DA9CF" transform="translate(13,88)"/>
<path d="M0 0 C8.57142857 -0.28571429 8.57142857 -0.28571429 12 2 C11.67 3.32 11.34 4.64 11 6 C10.38125 5.814375 9.7625 5.62875 9.125 5.4375 C6.95839822 4.76313824 6.95839822 4.76313824 5 6 C5 5.34 5 4.68 5 4 C4.34 4 3.68 4 3 4 C2.67 4.66 2.34 5.32 2 6 C0 3 0 3 0 0 Z " fill="#9BB4D5" transform="translate(49,88)"/>
<path d="M0 0 C3.3 0 6.6 0 10 0 C8.66654496 3.59007126 7.1056769 6.79570907 5 10 C4.67 10 4.34 10 4 10 C4 8.02 4 6.04 4 4 C2.68 3.34 1.36 2.68 0 2 C0 1.34 0 0.68 0 0 Z " fill="#F39C9C" transform="translate(98,72)"/>
<path d="M0 0 C3.96 0.33 7.92 0.66 12 1 C11.01 1.495 11.01 1.495 10 2 C10 2.66 10 3.32 10 4 C10.66 4 11.32 4 12 4 C12 4.66 12 5.32 12 6 C7.83861737 6.08159574 4.0527516 5.98248524 0 5 C0 3.35 0 1.7 0 0 Z " fill="#97B1D3" transform="translate(63,88)"/>
<path d="M0 0 C1.32 0 2.64 0 4 0 C4 2.31 4 4.62 4 7 C5.32 7 6.64 7 8 7 C8 7.66 8 8.32 8 9 C5.36 9 2.72 9 0 9 C0 6.03 0 3.06 0 0 Z " fill="#E5EBF4" transform="translate(101,49)"/>
<path d="M0 0 C1.8871875 0.061875 1.8871875 0.061875 3.8125 0.125 C3.8125 0.785 3.8125 1.445 3.8125 2.125 C3.02875 2.269375 2.245 2.41375 1.4375 2.5625 C-1.15171018 3.00298925 -1.15171018 3.00298925 -3.1875 4.125 C-3.84522428 7.15434491 -3.84522428 7.15434491 -4.1875 10.125 C-5.1775 9.795 -6.1675 9.465 -7.1875 9.125 C-7.375 5.75 -7.375 5.75 -7.1875 2.125 C-4.09861478 0.06574319 -3.47814073 -0.1140374 0 0 Z " fill="#E51312" transform="translate(64.1875,68.875)"/>
<path d="M0 0 C2.97 0 5.94 0 9 0 C9 0.66 9 1.32 9 2 C8.01 2 7.02 2 6 2 C6 4.64 6 7.28 6 10 C5.01 10 4.02 10 3 10 C3 7.36 3 4.72 3 2 C2.01 2 1.02 2 0 2 C0 1.34 0 0.68 0 0 Z " fill="#FBFCFD" transform="translate(80,49)"/>
<path d="M0 0 C6.625 -0.25 6.625 -0.25 10 2 C9.67 2.66 9.34 3.32 9 4 C5.7 4 2.4 4 -1 4 C-0.67 2.68 -0.34 1.36 0 0 Z " fill="#BC2432" transform="translate(99,67)"/>
<path d="M0 0 C1.9375 1.5625 1.9375 1.5625 3 3 C2.67 3.66 2.34 4.32 2 5 C1.649375 4.505 1.29875 4.01 0.9375 3.5 C-2.06034694 1.17908624 -4.32644233 1.54886134 -8 2 C-10.44098818 3.85420839 -10.44098818 3.85420839 -12 6 C-12 4.68 -12 3.36 -12 2 C-8.02100916 -1.49668892 -4.98403476 -1.29215716 0 0 Z " fill="#7D4067" transform="translate(32,67)"/>
<path d="M0 0 C0.99 0.33 1.98 0.66 3 1 C1.68 1.99 0.36 2.98 -1 4 C-0.65213292 5.97536745 -0.65213292 5.97536745 0 8 C0.66 8.33 1.32 8.66 2 9 C2 8.34 2 7.68 2 7 C3.32 7.33 4.64 7.66 6 8 C5.01 8.99 4.02 9.98 3 11 C1.02 10.34 -0.96 9.68 -3 9 C-3.1875 5.625 -3.1875 5.625 -3 2 C-2.01 1.34 -1.02 0.68 0 0 Z " fill="#ED6666" transform="translate(63,71)"/>
<path d="M0 0 C7.37042925 -0.36248013 7.37042925 -0.36248013 10.0625 1.1875 C11.38135516 3.73728665 10.7975116 5.31746098 10 8 C7.5 6.1875 7.5 6.1875 5 4 C5 3.01 5 2.02 5 1 C3.35 1 1.7 1 0 1 C0 0.67 0 0.34 0 0 Z " fill="#E60F0E" transform="translate(23,68)"/>
<path d="M0 0 C0.33 0.99 0.66 1.98 1 3 C0.01 3.33 -0.98 3.66 -2 4 C-2 3.34 -2 2.68 -2 2 C-3.258125 2.165 -4.51625 2.33 -5.8125 2.5 C-8.26456585 2.82158241 -10.51650694 3 -13 3 C-8.30609874 -0.77801809 -5.8692391 -1.40861738 0 0 Z " fill="#963552" transform="translate(70,67)"/>
<path d="M0 0 C2.66666667 0 5.33333333 0 8 0 C7.34 1.98 6.68 3.96 6 6 C4.33333333 6 2.66666667 6 1 6 C0.67 4.02 0.34 2.04 0 0 Z " fill="#98B2D4" transform="translate(87,88)"/>
<path d="M0 0 C2.64 0 5.28 0 8 0 C8 0.66 8 1.32 8 2 C6.68 2.33 5.36 2.66 4 3 C4 3.99 4 4.98 4 6 C2.68 5.67 1.36 5.34 0 5 C0 3.35 0 1.7 0 0 Z " fill="#EDF1F7" transform="translate(71,49)"/>
<path d="M0 0 C0.33 0.66 0.66 1.32 1 2 C1.33 1.34 1.66 0.68 2 0 C2.66 0 3.32 0 4 0 C3.49396008 2.16874252 3.00016187 3.99967627 2 6 C2.5775 5.67 3.155 5.34 3.75 5 C6 4 6 4 10 4 C9.67 4.66 9.34 5.32 9 6 C7.1875 6.44921875 7.1875 6.44921875 5 6.6875 C3.9171875 6.81705078 3.9171875 6.81705078 2.8125 6.94921875 C2.214375 6.96597656 1.61625 6.98273437 1 7 C0 6 0 6 -0.0625 2.9375 C-0.041875 1.968125 -0.02125 0.99875 0 0 Z " fill="#3C6DAD" transform="translate(87,53)"/>
<path d="M0 0 C0.5775 0.78375 1.155 1.5675 1.75 2.375 C3.96968305 5.30822236 3.96968305 5.30822236 8 7 C3.05 7 -1.9 7 -7 7 C-7.33 6.34 -7.66 5.68 -8 5 C-5.69 5 -3.38 5 -1 5 C-0.67 3.35 -0.34 1.7 0 0 Z " fill="#3F6FAE" transform="translate(31,53)"/>
<path d="M0 0 C0 0.99 0 1.98 0 3 C-1.32 2.67 -2.64 2.34 -4 2 C-4 2.66 -4 3.32 -4 4 C-4.99 4 -5.98 4 -7 4 C-7 2.68 -7 1.36 -7 0 C-4.3333581 -1.33332095 -2.83319697 -0.67102033 0 0 Z " fill="#FBDDDD" transform="translate(30,76)"/>
<path d="M0 0 C1.98 0 3.96 0 6 0 C6 1.65 6 3.3 6 5 C5.34 4.67 4.68 4.34 4 4 C1.90178785 4.39938767 1.90178785 4.39938767 0 5 C0 3.35 0 1.7 0 0 Z " fill="#9EB6D6" transform="translate(27,88)"/>
<path d="M0 0 C1.32 0.66 2.64 1.32 4 2 C4 3.98 4 5.96 4 8 C2.68 7.67 1.36 7.34 0 7 C-0.38133299 5.0085944 -0.71325582 3.00720923 -1 1 C-0.67 0.67 -0.34 0.34 0 0 Z " fill="#80A0C9" transform="translate(38,86)"/>
<path d="M0 0 C2.475 0.495 2.475 0.495 5 1 C5 1.99 5 2.98 5 4 C3.35 4.66 1.7 5.32 0 6 C0 4.02 0 2.04 0 0 Z " fill="#94AFD2" transform="translate(112,89)"/>
<path d="M0 0 C0.86625 0.2784375 0.86625 0.2784375 1.75 0.5625 C4.20692525 1.04023546 5.64397534 0.75729364 8 0 C7.67 1.32 7.34 2.64 7 4 C6.01 3.67 5.02 3.34 4 3 C4 3.66 4 4.32 4 5 C2.68 4.34 1.36 3.68 0 3 C0 2.01 0 1.02 0 0 Z " fill="#E51E1E" transform="translate(61,75)"/>
<path d="M0 0 C1.65 0.33 3.3 0.66 5 1 C4.67 2.65 4.34 4.3 4 6 C1.69 5.34 -0.62 4.68 -3 4 C-2.505 3.525625 -2.01 3.05125 -1.5 2.5625 C0.11542197 1.24076302 0.11542197 1.24076302 0 0 Z " fill="#E3EAF3" transform="translate(35,36)"/>
<path d="M0 0 C-0.99 0.33 -1.98 0.66 -3 1 C-3 2.32 -3 3.64 -3 5 C-3.99 5 -4.98 5 -6 5 C-6.33 3.35 -6.66 1.7 -7 0 C-4.3333581 -1.33332095 -2.83319697 -0.67102033 0 0 Z " fill="#5E87BB" transform="translate(115,88)"/>
<path d="M0 0 C0.33 0 0.66 0 1 0 C1.103125 0.928125 1.20625 1.85625 1.3125 2.8125 C2.0070192 6.03254358 2.47740939 7.02579865 5 9 C4.67 9.66 4.34 10.32 4 11 C3.01 10.67 2.02 10.34 1 10 C-0.60725635 6.78548731 -0.05748185 3.56387464 0 0 Z " fill="#BD2230" transform="translate(56,72)"/>
<path d="M0 0 C2.475 0.495 2.475 0.495 5 1 C4.67 2.32 4.34 3.64 4 5 C2.68 4.34 1.36 3.68 0 3 C0 2.01 0 1.02 0 0 Z " fill="#8CA9CE" transform="translate(56,89)"/>
<path d="M0 0 C3.3 0 6.6 0 10 0 C9.67 0.66 9.34 1.32 9 2 C6.125 2.8125 6.125 2.8125 3 3 C2.01 2.01 1.02 1.02 0 0 Z " fill="#EC6262" transform="translate(98,72)"/>
<path d="" fill="#2E65AA" transform="translate(0,0)"/>
</svg>
