<?xml version="1.0" encoding="UTF-8"?>
<svg version="1.1" xmlns="http://www.w3.org/2000/svg" width="130" height="130">
<path d="M0 0 C42.9 0 85.8 0 130 0 C130 42.9 130 85.8 130 130 C87.1 130 44.2 130 0 130 C0 87.1 0 44.2 0 0 Z " fill="#3064A8" transform="translate(0,0)"/>
<path d="M0 0 C1.65 0.66 3.3 1.32 5 2 C5 6.67325155 3.92757363 8.82359047 2 13 C2.969375 13.309375 3.93875 13.61875 4.9375 13.9375 C8 15 8 15 9 16 C9.25 18.9375 9.25 18.9375 9 22 C5.73718826 24.17520782 4.7659092 24.28244319 1 24 C0.01 23.67 -0.98 23.34 -2 23 C-2.66 23.33 -3.32 23.66 -4 24 C-9.25465839 24.44720497 -9.25465839 24.44720497 -11.875 22.875 C-13.4682099 20.21965017 -13.20214032 18.03210482 -13 15 C-14.65 15.66 -16.3 16.32 -18 17 C-13.85472506 8.96852981 -8.53487538 4.93386341 0 2 C0 1.34 0 0.68 0 0 Z " fill="#3668AA" transform="translate(34,35)"/>
<path d="M0 0 C4.25331827 0.86802414 6.18199992 2.40158324 9.0625 5.625 C9.75 9.125 9.75 9.125 9.0625 12.625 C6.47033917 16.31686542 5.02100936 17.45383761 0.5625 18.25 C-3.89600936 17.45383761 -5.34533917 16.31686542 -7.9375 12.625 C-8.5625 9.125 -8.5625 9.125 -7.9375 5.625 C-5.51605492 2.27770827 -4.06319154 0.86450884 0 0 Z " fill="#DE1315" transform="translate(25.9375,66.375)"/>
<path d="M0 0 C3.69879153 1.16443437 5.24663599 1.8273867 7.375 5.0625 C8.09625695 9.47018137 7.89501338 11.32187488 5.3125 15 C2.375 17.0625 2.375 17.0625 -1.125 17.6875 C-5.58350936 16.89133761 -7.03283917 15.75436542 -9.625 12.0625 C-10.3125 8.5625 -10.3125 8.5625 -9.625 5.0625 C-6.48302168 1.38408636 -4.88568266 0.08423591 0 0 Z " fill="#DE1517" transform="translate(65.625,66.9375)"/>
<path d="M0 0 C3.48326597 0.85529699 4.97293913 2.60978164 6.97265625 5.484375 C7.68501311 9.2836116 7.28529613 10.92162321 5.41015625 14.296875 C2.20268782 17.17537231 0.25772285 17.55955161 -4.02734375 17.484375 C-6.82923821 15.71796328 -8.54259286 14.45387678 -10.02734375 11.484375 C-10.43350604 7.82891435 -10.24168628 5.89519818 -8.52734375 2.609375 C-5.667774 0.17874072 -3.74624162 -0.25208355 0 0 Z " fill="#E11212" transform="translate(104.02734375,67.515625)"/>
<path d="M0 0 C1.32 0 2.64 0 4 0 C4.99 1.98 5.98 3.96 7 6 C7.33 4.02 7.66 2.04 8 0 C9.32 0 10.64 0 12 0 C12 2.31 12 4.62 12 7 C13.32 7 14.64 7 16 7 C16 7.99 16 8.98 16 10 C12.04 10 8.08 10 4 10 C4 9.34 4 8.68 4 8 C2.8553125 8.495 2.8553125 8.495 1.6875 9 C-1 10 -1 10 -4 10 C-3.52449439 8.51965236 -3.04448784 7.04074979 -2.5625 5.5625 C-2.29566406 4.73878906 -2.02882813 3.91507813 -1.75390625 3.06640625 C-1 1 -1 1 0 0 Z " fill="#DEE6F1" transform="translate(93,49)"/>
<path d="M0 0 C3.5 0.25 3.5 0.25 5.5 2.25 C5.125 5.875 5.125 5.875 4.5 9.25 C-1.92548263 10.58359073 -1.92548263 10.58359073 -4.4375 9.125 C-5.83812547 6.653308 -5.85877543 5.04844834 -5.5 2.25 C-3.5 0.25 -3.5 0.25 0 0 Z " fill="#F2F5F9" transform="translate(64.5,48.75)"/>
<path d="M0 0 C3.5 0.25 3.5 0.25 5.5 2.25 C5.8125 5.25 5.8125 5.25 5.5 8.25 C2.26746204 10.40502531 1.24849077 10.71856135 -2.5 10.25 C-4.3125 9.0625 -4.3125 9.0625 -5.5 7.25 C-5.8125 4.6875 -5.8125 4.6875 -5.5 2.25 C-3.5 0.25 -3.5 0.25 0 0 Z " fill="#EDF1F7" transform="translate(37.5,48.75)"/>
<path d="M0 0 C2.3125 1.25 2.3125 1.25 3.3125 2.25 C3.625 5.125 3.625 5.125 3.3125 8.25 C1.6875 10.25 1.6875 10.25 -0.6875 11.25 C-3.9375 10.4375 -3.9375 10.4375 -6.6875 9.25 C-7.17118522 2.84117083 -7.17118522 2.84117083 -5 0.1875 C-2.6875 -0.75 -2.6875 -0.75 0 0 Z " fill="#EC5B5B" transform="translate(66.6875,70.75)"/>
<path d="M0 0 C1.65 0.66 3.3 1.32 5 2 C5 6 5 6 3 9 C2.34 9 1.68 9 1 9 C1.33 7.68 1.66 6.36 2 5 C-5.87037353 7.03451833 -11.43219861 10.14829791 -16 17 C-16.66 16.67 -17.32 16.34 -18 16 C-13.45860887 8.76215788 -8.11724019 4.79030132 0 2 C0 1.34 0 0.68 0 0 Z " fill="#E2E9F2" transform="translate(34,35)"/>
<path d="M0 0 C2.64 0 5.28 0 8 0 C9.125 4.75 9.125 4.75 8 7 C6.35 7 4.7 7 3 7 C3 7.99 3 8.98 3 10 C2.01 10 1.02 10 0 10 C0 6.7 0 3.4 0 0 Z " fill="#E4EBF3" transform="translate(49,49)"/>
<path d="M0 0 C1.670625 0.061875 1.670625 0.061875 3.375 0.125 C3.375 1.115 3.375 2.105 3.375 3.125 C2.055 3.125 0.735 3.125 -0.625 3.125 C-0.955 4.445 -1.285 5.765 -1.625 7.125 C-0.635 7.125 0.355 7.125 1.375 7.125 C1.375 6.465 1.375 5.805 1.375 5.125 C2.365 5.125 3.355 5.125 4.375 5.125 C4.045 6.775 3.715 8.425 3.375 10.125 C-2.05357143 10.48690476 -2.05357143 10.48690476 -4.5 8.9375 C-6.00832602 6.50741919 -5.98523622 4.93484248 -5.625 2.125 C-3.625 0.125 -3.625 0.125 0 0 Z " fill="#EBF0F6" transform="translate(26.625,48.875)"/>
<path d="M0 0 C2.31 0 4.62 0 7 0 C7 0.66 7 1.32 7 2 C5.68 2.33 4.36 2.66 3 3 C5.475 3.99 5.475 3.99 8 5 C7.125 8.875 7.125 8.875 6 10 C3.66702567 10.04092937 1.33294775 10.04241723 -1 10 C-1 9.01 -1 8.02 -1 7 C-0.34 6.67 0.32 6.34 1 6 C0.34 5.67 -0.32 5.34 -1 5 C-0.67 3.35 -0.34 1.7 0 0 Z " fill="#E2E9F2" transform="translate(72,49)"/>
<path d="M0 0 C0.928125 0.20625 1.85625 0.4125 2.8125 0.625 C3.85699911 3.75849732 3.74673645 4.61468256 2.8125 7.625 C1.8225 7.625 0.8325 7.625 -0.1875 7.625 C-0.1875 6.965 -0.1875 6.305 -0.1875 5.625 C-0.8475 5.625 -1.5075 5.625 -2.1875 5.625 C-2.1875 6.285 -2.1875 6.945 -2.1875 7.625 C-3.1775 7.625 -4.1675 7.625 -5.1875 7.625 C-5.5175 5.645 -5.8475 3.665 -6.1875 1.625 C-3.1875 -0.375 -3.1875 -0.375 0 0 Z " fill="#F29393" transform="translate(28.1875,72.375)"/>
<path d="M0 0 C3.3 0 6.6 0 10 0 C8.66654496 3.59007126 7.1056769 6.79570907 5 10 C4.67 10 4.34 10 4 10 C4 8.02 4 6.04 4 4 C2.68 3.34 1.36 2.68 0 2 C0 1.34 0 0.68 0 0 Z " fill="#F39C9C" transform="translate(98,72)"/>
<path d="M0 0 C3.3721621 0.18042934 4.2090569 0.62204031 7.125 2.6875 C9.42242742 5.99005191 9.58261159 7.6270403 9.125 11.5625 C8.795 11.5625 8.465 11.5625 8.125 11.5625 C8.125 9.9125 8.125 8.2625 8.125 6.5625 C7.465 6.5625 6.805 6.5625 6.125 6.5625 C5.795 5.9025 5.465 5.2425 5.125 4.5625 C1.165 4.5625 -2.795 4.5625 -6.875 4.5625 C-3.875 0.5625 -3.875 0.5625 0 0 Z " fill="#D91619" transform="translate(101.875,67.4375)"/>
<path d="M0 0 C2.97 0 5.94 0 9 0 C9 0.66 9 1.32 9 2 C8.01 2 7.02 2 6 2 C6 4.64 6 7.28 6 10 C5.01 10 4.02 10 3 10 C3 7.36 3 4.72 3 2 C2.01 2 1.02 2 0 2 C0 1.34 0 0.68 0 0 Z " fill="#FBFCFD" transform="translate(80,49)"/>
<path d="M0 0 C0.33 0 0.66 0 1 0 C1 1.98 1 3.96 1 6 C-2.63 6 -6.26 6 -10 6 C-9.67 4.35 -9.34 2.7 -9 1 C-8.01 1.33 -7.02 1.66 -6 2 C-5.01 1.67 -4.02 1.34 -3 1 C-2.34 1.33 -1.68 1.66 -1 2 C-0.67 1.34 -0.34 0.68 0 0 Z " fill="#9DB6D6" transform="translate(110,87)"/>
<path d="M0 0 C0 0.66 0 1.32 0 2 C0.99 2 1.98 2 3 2 C3 3.32 3 4.64 3 6 C-0.33333333 6 -3.66666667 6 -7 6 C-7 4.35 -7 2.7 -7 1 C-2.25 0 -2.25 0 0 0 Z " fill="#A0B8D7" transform="translate(34,87)"/>
<path d="M0 0 C0.99 0.33 1.98 0.66 3 1 C1.68 1.99 0.36 2.98 -1 4 C-0.65213292 5.97536745 -0.65213292 5.97536745 0 8 C0.66 8.33 1.32 8.66 2 9 C2 8.34 2 7.68 2 7 C3.32 7.33 4.64 7.66 6 8 C5.01 8.99 4.02 9.98 3 11 C1.02 10.34 -0.96 9.68 -3 9 C-3.1875 5.625 -3.1875 5.625 -3 2 C-2.01 1.34 -1.02 0.68 0 0 Z " fill="#ED6666" transform="translate(63,71)"/>
<path d="M0 0 C0.99 0 1.98 0 3 0 C3 2.31 3 4.62 3 7 C4.32 7 5.64 7 7 7 C7 7.66 7 8.32 7 9 C4.69 9 2.38 9 0 9 C0 6.03 0 3.06 0 0 Z " fill="#ECF1F7" transform="translate(102,49)"/>
<path d="M0 0 C0.33 0.66 0.66 1.32 1 2 C1.66 2 2.32 2 3 2 C3.33 2.99 3.66 3.98 4 5 C1.69 5.33 -0.62 5.66 -3 6 C-3.33 4.35 -3.66 2.7 -4 1 C-2.68 0.67 -1.36 0.34 0 0 Z " fill="#86A4CC" transform="translate(76,88)"/>
<path d="M0 0 C6.39075249 -0.36174071 6.39075249 -0.36174071 9 1.1875 C10 3 10 3 9.6875 5.6875 C9.460625 6.450625 9.23375 7.21375 9 8 C6.5 6.1875 6.5 6.1875 4 4 C4 3.01 4 2.02 4 1 C2.68 0.67 1.36 0.34 0 0 Z " fill="#E60F0E" transform="translate(24,68)"/>
<path d="M0 0 C0.66 0 1.32 0 2 0 C2.33 2.64 2.66 5.28 3 8 C2.01 8.495 2.01 8.495 1 9 C1 7.68 1 6.36 1 5 C0.01 5 -0.98 5 -2 5 C-2 5.66 -2 6.32 -2 7 C-2.99 7 -3.98 7 -5 7 C-4.67 5.35 -4.34 3.7 -4 2 C-2.68 1.67 -1.36 1.34 0 1 C0 0.67 0 0.34 0 0 Z " fill="#4574B0" transform="translate(30,49)"/>
<path d="M0 0 C2.64 0.33 5.28 0.66 8 1 C8 2.32 8 3.64 8 5 C7.01 5 6.02 5 5 5 C4.67 4.34 4.34 3.68 4 3 C2.02 3.99 2.02 3.99 0 5 C0 3.35 0 1.7 0 0 Z " fill="#A8BDDA" transform="translate(63,88)"/>
<path d="M0 0 C2.31 0 4.62 0 7 0 C7 0.66 7 1.32 7 2 C5.68 2.33 4.36 2.66 3 3 C3 3.99 3 4.98 3 6 C1.68 5.67 0.36 5.34 -1 5 C-0.67 3.35 -0.34 1.7 0 0 Z " fill="#F2F5F9" transform="translate(72,49)"/>
<path d="M0 0 C2.64 0 5.28 0 8 0 C7.34 1.65 6.68 3.3 6 5 C4.35 5 2.7 5 1 5 C0.67 3.35 0.34 1.7 0 0 Z " fill="#A7BDDA" transform="translate(49,88)"/>
<path d="M0 0 C0 0.99 0 1.98 0 3 C-1.32 2.67 -2.64 2.34 -4 2 C-4 2.66 -4 3.32 -4 4 C-4.99 4 -5.98 4 -7 4 C-7 2.68 -7 1.36 -7 0 C-4.3333581 -1.33332095 -2.83319697 -0.67102033 0 0 Z " fill="#FBDDDD" transform="translate(30,76)"/>
<path d="M0 0 C2.66666667 0 5.33333333 0 8 0 C7.67 1.65 7.34 3.3 7 5 C3 5 3 5 1 4 C0.375 1.9375 0.375 1.9375 0 0 Z " fill="#AEC2DD" transform="translate(13,88)"/>
<path d="M0 0 C2.97 0 5.94 0 9 0 C9 2.64 9 5.28 9 8 C8.67 8 8.34 8 8 8 C7.67 6.35 7.34 4.7 7 3 C4.69 2.34 2.38 1.68 0 1 C0 0.67 0 0.34 0 0 Z " fill="#5C85BA" transform="translate(74,51)"/>
<path d="M0 0 C2.66666667 0 5.33333333 0 8 0 C7.34 1.65 6.68 3.3 6 5 C4.33333333 5 2.66666667 5 1 5 C0.67 3.35 0.34 1.7 0 0 Z " fill="#B0C4DD" transform="translate(87,88)"/>
<path d="M0 0 C2.31 0.33 4.62 0.66 7 1 C7 1.99 7 2.98 7 4 C4.69 4 2.38 4 0 4 C0 2.68 0 1.36 0 0 Z " fill="#E41010" transform="translate(61,80)"/>
<path d="M0 0 C0.86625 0.2784375 0.86625 0.2784375 1.75 0.5625 C4.20692525 1.04023546 5.64397534 0.75729364 8 0 C7.67 1.32 7.34 2.64 7 4 C6.01 3.67 5.02 3.34 4 3 C4 3.66 4 4.32 4 5 C2.68 4.34 1.36 3.68 0 3 C0 2.01 0 1.02 0 0 Z " fill="#E51E1E" transform="translate(61,75)"/>
<path d="M0 0 C1.125 1.75 1.125 1.75 2 4 C1.125 6.25 1.125 6.25 0 8 C-0.66 6.35 -1.32 4.7 -2 3 C-2 5.31 -2 7.62 -2 10 C-2.33 10 -2.66 10 -3 10 C-3 7.36 -3 4.72 -3 2 C-2.01 2 -1.02 2 0 2 C0 1.34 0 0.68 0 0 Z " fill="#4C79B4" transform="translate(89,49)"/>
<path d="M0 0 C1.98 0.495 1.98 0.495 4 1 C3.67 2.32 3.34 3.64 3 5 C1.68 4.67 0.36 4.34 -1 4 C-0.67 2.68 -0.34 1.36 0 0 Z " fill="#4D7AB4" transform="translate(63,51)"/>
<path d="M0 0 C2.475 0.495 2.475 0.495 5 1 C4.67 1.99 4.34 2.98 4 4 C1.9375 4.6875 1.9375 4.6875 0 5 C0 3.35 0 1.7 0 0 Z " fill="#9CB5D5" transform="translate(112,89)"/>
<path d="M0 0 C3.3 0 6.6 0 10 0 C9.67 0.66 9.34 1.32 9 2 C6.125 2.8125 6.125 2.8125 3 3 C2.01 2.01 1.02 1.02 0 0 Z " fill="#EC6262" transform="translate(98,72)"/>
<path d="M0 0 C0.66 0 1.32 0 2 0 C2 0.66 2 1.32 2 2 C2.99 2 3.98 2 5 2 C5 3.32 5 4.64 5 6 C3.68 5.67 2.36 5.34 1 5 C0.67 3.35 0.34 1.7 0 0 Z " fill="#87A5CC" transform="translate(32,87)"/>
<path d="M0 0 C0.33 0 0.66 0 1 0 C1.103125 0.928125 1.20625 1.85625 1.3125 2.8125 C2.0070192 6.03254358 2.47740939 7.02579865 5 9 C4.34 9.66 3.68 10.32 3 11 C0.39665076 8.28817788 0.00543309 7.10866187 -0.1875 3.25 C-0.125625 2.1775 -0.06375 1.105 0 0 Z " fill="#D2191F" transform="translate(56,72)"/>
<path d="M0 0 C0.9075 0.103125 1.815 0.20625 2.75 0.3125 C2.75 0.6425 2.75 0.9725 2.75 1.3125 C1.1 1.3125 -0.55 1.3125 -2.25 1.3125 C-2.91 2.6325 -3.57 3.9525 -4.25 5.3125 C-5.24 5.3125 -6.23 5.3125 -7.25 5.3125 C-4.05 0.38942308 -4.05 0.38942308 0 0 Z " fill="#C91E28" transform="translate(26.25,66.6875)"/>
<path d="M0 0 C0.33 0.99 0.66 1.98 1 3 C2.65 3 4.3 3 6 3 C6 3.33 6 3.66 6 4 C2.7 4.33 -0.6 4.66 -4 5 C-2.68 3.35 -1.36 1.7 0 0 Z " fill="#4674B1" transform="translate(23,45)"/>
<path d="M0 0 C0.99 0.33 1.98 0.66 3 1 C2.67 2.32 2.34 3.64 2 5 C1.01 5 0.02 5 -1 5 C-0.67 3.35 -0.34 1.7 0 0 Z " fill="#386AAB" transform="translate(37,51)"/>
</svg>
